<svg xmlns="http://www.w3.org/2000/svg" viewBox="0 0 100 100">
  <defs>
    <linearGradient id="brainGrad" x1="0%" y1="0%" x2="100%" y2="100%">
      <stop offset="0%" style="stop-color:#06b6d4;stop-opacity:1" />
      <stop offset="100%" style="stop-color:#3b82f6;stop-opacity:1" />
    </linearGradient>
  </defs>
  <circle cx="50" cy="50" r="45" fill="#0f172a"/>
  <path d="M50 20c-16.5 0-30 13.5-30 30s13.5 30 30 30 30-13.5 30-30-13.5-30-30-30zm0 5c13.8 0 25 11.2 25 25s-11.2 25-25 25-25-11.2-25-25 11.2-25 25-25z" fill="url(#brainGrad)" opacity="0.3"/>
  <path d="M35 45c0-8.3 6.7-15 15-15s15 6.7 15 15c0 5-2.5 9.5-6.3 12.2L55 70h-10l-3.7-12.8C37.5 54.5 35 50 35 45z" fill="url(#brainGrad)"/>
  <circle cx="45" cy="42" r="3" fill="#fff"/>
  <circle cx="55" cy="42" r="3" fill="#fff"/>
  <path d="M43 52c0 0 3 4 7 4s7-4 7-4" stroke="#fff" stroke-width="2" fill="none" stroke-linecap="round"/>
</svg>

